:SAMPLES-PER-SECOND 24
:FULLY-SPECIFIED
:DEGREES
72
root  4.63305 41.1037 -16.2238 130.656 42.977 122.835
RightUpLeg  -13.9206 31.8767 -37.4638
RightLeg  19.4278 -4.78955 -2.0742
RightFoot  -1.62637 0.189145 -2.3535
RightToes  -2.09809e-008 3.77894e-005 6.81332e-007
Spine  13.7268 0.332629 -2.59746
Spine1  1.6838 3.58155 -18.4934
HEad  -3.51879 25.6993 -12.5378
LeftShoulder1  5.30569 -10.8945 -30.8477
LeftArm  8.39943 28.7526 -31.2805
LeftForeArm  175.541 -58.3103 -164.356
LeftHand  0.158446 -3.89201 -1.71918
RightShoulder  2.7965 5.33452 25.5926
RightArm  31.2189 3.42414 37.3946
RightForeArm  148.961 74.9214 140.684
RightHand  -0.506531 10.8735 -4.02038
LeftUpLeg  -62.2963 25.6532 27.0512
LeftLeg  107.769 1.62644 -5.33879
LeftFoot  -5.55615 0.885009 -16.7475
LeftToes  1.24773e-006 1.46318e-008 1.32523e-009
73
root  4.45971 41.2517 -16.9743 124.951 42.2664 115.704
RightUpLeg  -17.0537 26.0263 -41.4322
RightLeg  22.4543 -4.31097 -2.17169
RightFoot  -0.80468 0.28711 -3.14902
RightToes  -2.09809e-008 3.77894e-005 6.81332e-007
Spine  14.8726 0.383424 -2.66216
Spine1  -0.227369 3.91045 -22.1196
HEad  -2.83792 25.8922 -13.2242
LeftShoulder1  5.1737 -10.695 -30.4294
LeftArm  8.41376 28.9217 -29.8544
LeftForeArm  174.968 -57.1329 -164.978
LeftHand  0.284273 -4.07027 -3.2216
RightShoulder  2.67145 5.2261 24.5029
RightArm  33.9798 6.56818 37.7243
RightForeArm  149.344 74.8275 141.006
RightHand  -0.540677 10.5482 -4.33725
LeftUpLeg  -63.5492 28.657 31.5792
LeftLeg  100.069 0.673875 -4.55868
LeftFoot  -5.23033 1.11472 -20.1181
LeftToes  1.24773e-006 1.46318e-008 1.32523e-009
74
root  4.31415 41.1157 -17.5819 121.153 40.967 111.413
RightUpLeg  -18.5894 17.6937 -42.0805
RightLeg  25.4327 -8.33681 -4.53244
RightFoot  -1.30696 0.485519 -5.60679
RightToes  -2.09809e-008 3.77894e-005 6.81332e-007
Spine  16.2132 0.417566 -4.59762
Spine1  -1.59302 3.32787 -21.9637
HEad  -2.99536 26.2079 -13.986
LeftShoulder1  4.9462 -10.4046 -29.541
LeftArm  8.13558 28.0061 -29.6842
LeftForeArm  174.599 -56.6188 -165.227
LeftHand  0.284763 -3.89164 -3.29738
RightShoulder  2.61167 5.24592 23.7095
RightArm  35.3026 8.54974 37.2622
RightForeArm  150.778 74.1566 142.933
RightHand  -0.456083 10.0346 -3.8269
LeftUpLeg  -63.1969 29.967 35.1992
LeftLeg  89.1536 -0.292064 -1.24229
LeftFoot  -4.45831 1.2963 -20.8837
LeftToes  1.24773e-006 1.46318e-008 1.32523e-009
75
root  4.27603 40.8538 -18.2499 118.606 39.4889 109.651
RightUpLeg  -16.6407 13.2364 -42.4124
RightLeg  24.8025 -13.2339 -6.7966
RightFoot  -3.89054 0.538357 -8.64701
RightToes  -2.09809e-008 3.77894e-005 6.81332e-007
Spine  17.1625 0.444609 -6.38479
Spine1  -1.65069 2.49738 -19.6012
HEad  -3.5923 26.2555 -14.3119
LeftShoulder1  4.69653 -10.0731 -28.5495
LeftArm  8.32117 25.3193 -29.9284
LeftForeArm  173.785 -57.0203 -164.941
LeftHand  0.173391 -3.73682 -1.94936
RightShoulder  2.53724 5.16903 23.0806
RightArm  34.9668 8.96061 36.8148
RightForeArm  151.111 73.7075 144.033
RightHand  -0.44775 10.1136 -3.74963
LeftUpLeg  -60.3712 29.3149 38.17
LeftLeg  73.0273 1.19163 5.46613
LeftFoot  0.709091 2.13303 -20.0714
LeftToes  1.24773e-006 1.46318e-008 1.32523e-009
76
root  4.37272 40.5819 -18.7699 117.929 38.8044 109.111
RightUpLeg  -15.6108 13.0063 -43.3952
RightLeg  24.6587 -14.8711 -7.53761
RightFoot  -6.67258 0.353611 -9.68942
RightToes  -2.09809e-008 3.77894e-005 6.81332e-007
Spine  16.8275 -0.0619202 -6.06705
Spine1  -1.51692 1.77228 -19.6554
HEad  -4.57388 26.7786 -14.825
LeftShoulder1  4.61184 -9.90526 -28.3462
LeftArm  7.95835 22.1633 -29.5756
LeftForeArm  173.979 -58.1745 -164.301
LeftHand  0.15721 -4.03914 -1.6646
RightShoulder  2.59959 5.1641 23.8599
RightArm  33.7718 7.32079 35.9625
RightForeArm  151.304 73.9271 143.567
RightHand  -0.471817 10.5545 -3.83787
LeftUpLeg  -54.755 26.1505 42.141
LeftLeg  51.9009 8.04936 11.2737
LeftFoot  8.56825 3.22048 -18.5521
LeftToes  1.24773e-006 1.46318e-008 1.32523e-009
77
root  4.55155 40.4283 -19.1613 118.579 38.9039 108.974
RightUpLeg  -16.7498 12.8381 -44.04
RightLeg  26.6003 -14.4738 -7.95659
RightFoot  -8.14457 0.198516 -9.05599
RightToes  -2.09809e-008 3.77894e-005 6.81332e-007
Spine  14.3487 -0.625001 -4.90319
Spine1  0.115155 1.5811 -20.7603
HEad  -6.51495 27.6931 -16.3869
LeftShoulder1  4.79183 -10.125 -29.1284
LeftArm  6.47772 19.9345 -30.1164
LeftForeArm  175.288 -59.9752 -163.31
LeftHand  0.203201 -4.14102 -2.20425
RightShoulder  2.6822 5.23605 24.5956
RightArm  32.3099 3.73742 35.4544
RightForeArm  151.784 74.2707 142.848
RightHand  -0.410581 10.755 -3.35786
LeftUpLeg  -46.9416 15.4025 49.9443
LeftLeg  31.2928 18.0901 11.7433
LeftFoot  7.53993 2.44984 -14.7375
LeftToes  1.24773e-006 1.46318e-008 1.32523e-009
